# xmcd
# Copyright (C) 1995-1998 Ti Kan
#
# Track frame offsets:
#       150
#       17575
#       56825
#       75827
#       91239
#       114586
#       139168
#       155683
#       170825
#       189361
#       212694
#       233235
#       254854
#       270591
#       286121
#       302667
#
# Disc length: 4298 seconds
#
# Revision: 14
# Processed by: cddbd v1.5.1PL0 Copyright (c) Steve Scherf et al.
# Submitted via: CD-Transfer v1.0
#
DISCID=dc10c810
DTITLE=Prodigy - Euro Express 580
DYEAR=04
DGENRE=
TTITLE0=Right About Now
TTITLE1=Strings Of Life (Danny Krivit Ext.edit)
TTITLE2=Pop Muzak
TTITLE3=Thu Thuca (Fresca Boys Mix 1 Radio Vers.)
TTITLE4=Drop The Pressure (Lirycs!)
TTITLE5=She
TTITLE6=Zuruek (Lirycs!)
TTITLE7=Hymn
TTITLE8=Mein Teil (Remix By Pet Shop Boys)
TTITLE9=Never Trust A Lady (In The Discoteque)dub Mix
TTITLE10=You're Shining (Panda Radio Cut)
TTITLE11=You're Shining (Kb Project Mix)
TTITLE12=More More More
TTITLE13=Veo Veo (Club Mix)
TTITLE14=Pideme (Speed Ragga Remix)
TTITLE15=Memphis Bells (Album Vers.)
EXTD=
EXTT0=
EXTT1=
EXTT2=
EXTT3=
EXTT4=
EXTT5=
EXTT6=
EXTT7=
EXTT8=
EXTT9=
EXTT10=
EXTT11=
EXTT12=
EXTT13=
EXTT14=
EXTT15=
PLAYORDER=
